<svg xmlns="http://www.w3.org/2000/svg" xmlns:xlink="http://www.w3.org/1999/xlink" fill="none" version="1.1" width="79" height="16" viewBox="0 0 79 16"><g><path d="M8.81641,4.7L8,10.6531Q8,11.0008,7.71875,11.2273Q7.4375,11.45,7.08984,11.45L0.632812,11.45L1.4375,5.15312L1.08984,4.7L8.81641,4.7ZM3.74219,5.84453L3.05859,10.3055L5.81641,10.3055L6.51562,5.84453L3.74219,5.84453ZM13.0195,4.7L15.4297,8.93437L16.0078,4.7L17.9727,4.7L17.0508,11.45L14.7461,11.45L12.4414,7.325L11.8672,11.45L9.78906,11.45L10.7148,5.15312L10.2461,4.7L13.0195,4.7ZM23.8164,10.2L24.043,8.7L19.4336,8.7L20.0117,4.7L26.8047,4.7L26.5742,6.64141L24.2695,6.64141L24.3906,5.84453L22.1953,5.84453L21.8477,7.55547L26.4531,7.55547L26,10.7234Q26,10.8758,25.9219,11.0125Q25.8438,11.1453,25.7109,11.243Q25.5781,11.3406,25.4141,11.3953Q25.2539,11.45,25.0742,11.45L19.0859,11.45L19.3164,9.69219L19.6641,10.2L23.8164,10.2Z" fill="#4870AC" fill-opacity="1"/><path d="M41.9336,4.7Q42.2812,4.7,42.4961,4.92656Q42.7148,5.15312,42.6289,5.49687L42.0547,9.50469L42.7383,9.73125L42.5117,11.1023L41.5859,10.7586L41.4766,11.45L35.8242,11.45Q35.6562,11.45,35.5117,11.3914Q35.3711,11.3289,35.2695,11.2234Q35.168,11.1141,35.1289,10.9656Q35.0938,10.8172,35.1406,10.6492L35.9453,4.7L41.9336,4.7ZM38.8242,9.73125L39.0547,8.36016L39.9766,8.70781L40.3242,5.84453L38.0234,5.84453L37.4453,10.3055L39.75,10.3055L39.75,10.0789L38.8242,9.73125ZM46.8594,4.7L46.0547,10.3055L48.8164,10.3055L49.6328,5.03203L49.1641,4.7L51.9336,4.7L51.0117,11.45L44.4453,11.45Q44.0977,11.45,43.9219,11.2273Q43.75,11.0008,43.75,10.6531L44.5547,5.03203L44.207,4.7L46.8594,4.7ZM60.1797,4.7L60.0703,5.84453L56.2695,5.84453L56.0391,7.30547L59.6055,7.30547L59.4961,8.45L55.8008,8.45L55.5703,10.3055L59.6055,10.3055L59.4961,11.45L53.0391,11.45L53.9648,5.15312L53.6172,4.7L60.1797,4.7ZM69.207,4.7L68.75,8.15312Q68.75,8.32109,68.6719,8.46953Q68.5938,8.61406,68.4609,8.72344Q68.332,8.82891,68.168,8.89141Q68.0078,8.95,67.8281,8.95L66.3281,8.95L68.75,11.45L66.2188,11.45L63.9141,8.95L63.5664,11.45L61.2617,11.45L62.0664,5.15312L61.7188,4.7L69.207,4.7ZM64.2617,5.84453L64.0234,7.80547L66.5664,7.80547L66.793,5.84453L64.2617,5.84453ZM75.5234,4.92656L75.293,4.7L78.0547,4.7L74.7188,8.70781L74.3711,11.45L72.0664,11.45L72.4141,8.70781L70.457,5.03203L70.1094,4.7L72.5352,4.7L73.793,7.21562L75.5234,4.92656Z" fill="#3D3D3D" fill-opacity="1"/></g></svg>